<?xml version="1.0" encoding="UTF-8"?>
<svg width="159px" height="136px" viewBox="0 0 159 136" version="1.1" xmlns="http://www.w3.org/2000/svg" xmlns:xlink="http://www.w3.org/1999/xlink">
    <!-- Generator: Sketch 49.3 (51167) - http://www.bohemiancoding.com/sketch -->
    <title>ambulanciaFull</title>
    <desc>Created with Sketch.</desc>
    <defs></defs>
    <g id="Page-1" stroke="none" stroke-width="1" fill="none" fill-rule="evenodd">
        <g id="Artboard-3" transform="translate(-1769.000000, -668.000000)" fill="#000000" fill-rule="nonzero">
            <g id="ambulanciaFull" transform="translate(1769.000000, 668.000000)">
                <path d="M132.74,35.64 L116.39,35.64 L116.39,19.3 C116.390006,16.7689131 114.341081,14.7155144 111.81,14.71 L99.81,14.71 C97.2789191,14.7155144 95.229994,16.7689131 95.23,19.3 L95.23,35.64 L78.89,35.64 C76.3589131,35.639994 74.3055144,37.6889191 74.3,40.22 L74.3,52.22 C74.3055144,54.7510809 76.3589131,56.800006 78.89,56.8 L95.23,56.8 L95.23,73.14 C95.229994,75.6710869 97.2789191,77.7244856 99.81,77.73 L111.81,77.73 C114.341081,77.7244856 116.390006,75.6710869 116.39,73.14 L116.39,56.8 L132.74,56.8 C135.267183,56.7945001 137.3145,54.7471825 137.32,52.22 L137.32,40.22 C137.3145,37.6928175 135.267183,35.6454999 132.74,35.64 Z M134,52.22 C134,52.8937874 133.453787,53.44 132.78,53.44 L113,53.44 L113,73.14 C113.000022,73.8154241 112.455402,74.3645087 111.78,74.37 L99.78,74.37 C99.1045982,74.3645087 98.5599777,73.8154241 98.56,73.14 L98.56,53.44 L78.89,53.44 C78.2162126,53.44 77.67,52.8937874 77.67,52.22 L77.67,40.22 C77.67,39.5462126 78.2162126,39 78.89,39 L98.59,39 L98.59,19.3 C98.59,18.6262126 99.1362126,18.08 99.81,18.08 L111.81,18.08 C112.472043,18.0962846 113.0002,18.6377566 113,19.3 L113,39 L132.71,39 C133.045513,38.9807171 133.37412,39.1006883 133.618287,39.3316059 C133.862454,39.5625235 134.000554,39.8839343 134,40.22 L134,52.22 Z" id="Shape"></path>
                <path d="M46.2,99.49 C40.8601887,99.4900015 36.0463583,102.707161 34.0038364,107.640891 C31.9613145,112.574621 33.0924845,118.25296 36.8697318,122.027346 C40.6469791,125.801731 46.3261739,126.928598 51.2583543,124.882337 C56.1905346,122.836077 59.4040453,118.01981 59.4,112.68 C59.3889741,105.396032 53.4839739,99.4955056 46.2,99.49 Z M46.2,122.49 C42.2196101,122.50214 38.6247737,120.112683 37.0949944,116.437982 C35.5652151,112.763282 36.4024788,108.52874 39.2156169,105.712732 C42.0287551,102.896723 46.2624403,102.055141 49.9386994,103.581171 C53.6149585,105.107202 56.00808,108.6996 56,112.68 C55.9945417,118.094997 51.6149549,122.487991 46.2,122.51 L46.2,122.49 Z" id="Shape"></path>
                <path d="M150.55,-1.33222697e-15 L52.86,-1.33222697e-15 C48.2562295,0.00551020398 44.5255102,3.73622952 44.52,8.34 L44.52,39.34 L35.73,39.34 C31.9190364,39.5120407 28.2902716,41.0201908 25.48,43.6 L11.12,58.2 C8.5684454,61.0444632 7.07772264,64.6829571 6.9,68.5 L6.9,101.57 C3.36813902,101.710833 0.619167389,104.688139 0.76,108.22 C0.900832611,111.751861 3.87813902,114.500833 7.41,114.36 L23.47,114.36 C24.3697943,126.250739 34.2802646,135.4396 46.205,135.4396 C58.1297354,135.4396 68.0402057,126.250739 68.94,114.36 L98.13,114.36 C99.0297943,126.250739 108.940265,135.4396 120.865,135.4396 C132.789735,135.4396 142.700206,126.250739 143.6,114.36 L150.6,114.36 C155.199875,114.354504 158.928986,110.629865 158.94,106.03 L158.94,8.34 C158.937367,6.12022792 158.050976,3.99286199 156.476675,2.42794302 C154.902374,0.86302404 152.769748,-0.0106352077 150.55,-1.33222697e-15 Z M155.55,106 C155.55,108.761424 153.311424,111 150.55,111 L140.3,111 L140.3,112.68 C140.459895,119.728553 136.790974,126.311203 130.712003,129.882447 C124.633032,133.453691 117.096968,133.453691 111.017997,129.882447 C104.939026,126.311203 101.270105,119.728553 101.43,112.68 L101.43,111 L65.64,111 L65.64,112.68 C65.7998953,119.728553 62.1309737,126.311203 56.0520029,129.882447 C49.9730322,133.453691 42.4369678,133.453691 36.3579971,129.882447 C30.2790263,126.311203 26.6101047,119.728553 26.77,112.68 L26.77,111 L7.41,111 C5.72829294,111 4.365,109.636707 4.365,107.955 C4.365,106.273293 5.72829294,104.91 7.41,104.91 L10.41,104.91 L10.24,103.08 C10.24,102.97 10.24,102.86 10.24,102.75 L10.24,68.5 C10.4188983,65.5477463 11.5645053,62.7364407 13.5,60.5 L27.87,46 C30.0509992,44.0594022 32.8169351,42.9016504 35.73,42.71 L47.88,42.71 L47.88,8.34 C47.88,5.57857625 50.1185763,3.34 52.88,3.34 L150.57,3.34 C153.331424,3.34 155.57,5.57857625 155.57,8.34 L155.55,106 Z" id="Shape"></path>
                <path d="M120.86,99.49 C115.520189,99.4900015 110.706358,102.707161 108.663836,107.640891 C106.621315,112.574621 107.752485,118.25296 111.529732,122.027346 C115.306979,125.801731 120.986174,126.928598 125.918354,124.882337 C130.850535,122.836077 134.064045,118.01981 134.06,112.68 C134.048974,105.396032 128.143974,99.4955056 120.86,99.49 Z M120.86,122.49 C115.432346,122.484478 111.036322,118.080996 111.040002,112.65334 C111.043682,107.225685 115.445674,102.828167 120.87333,102.830006 C126.300986,102.831844 130.699997,107.232343 130.7,112.66 C130.702654,115.271462 129.667114,117.776875 127.821469,119.624396 C125.975823,121.471917 123.471464,122.510001 120.86,122.51 L120.86,122.49 Z" id="Shape"></path>
                <path d="M47.84,68.54 L47.84,48.93 C47.8345068,46.9771919 46.2528081,45.3954932 44.3,45.39 L34.62,45.39 C32.9926421,45.4588703 31.4446668,46.1121443 30.26,47.23 L15.9,62 C14.8224227,63.2081659 14.196921,64.7524836 14.13,66.37 L14.13,68.5 C14.1355119,70.4567045 15.7232878,72.0400078 17.68,72.04 L44.3,72.04 C46.2373545,72.0347347 47.8127204,70.4771696 47.84,68.54 Z M17.5,68.54 L17.5,66.41 C17.5669611,65.6762789 17.8526202,64.9795494 18.32,64.41 L32.67,49.61 C33.2171824,49.1361771 33.8991843,48.8458891 34.62,48.78 L44.3,48.78 C44.397266,48.7849977 44.4750023,48.862734 44.48,48.96 L44.48,68.54 C44.4750023,68.637266 44.397266,68.7150023 44.3,68.72 L17.68,68.72 C17.632261,68.72 17.5864773,68.7010358 17.5527208,68.6672792 C17.5189642,68.6335227 17.5,68.587739 17.5,68.54 Z" id="Shape"></path>
            </g>
        </g>
    </g>
</svg>