<?xml version="1.0" encoding="UTF-8"?>
<svg width="152px" height="130px" viewBox="0 0 152 130" version="1.1" xmlns="http://www.w3.org/2000/svg" xmlns:xlink="http://www.w3.org/1999/xlink">
    <!-- Generator: Sketch 49.3 (51167) - http://www.bohemiancoding.com/sketch -->
    <title>ambulancia</title>
    <desc>Created with Sketch.</desc>
    <defs></defs>
    <g id="Page-1" stroke="none" stroke-width="1" fill="none" fill-rule="evenodd">
        <g id="Artboard-3" transform="translate(-1769.000000, -288.000000)" fill="#FFFFFF" fill-rule="nonzero">
            <path d="M1920.185,390.66 C1920.185,393.421424 1917.94642,395.66 1915.185,395.66 L1904.935,395.66 L1904.935,397.34 C1905.0949,404.388553 1901.42597,410.971203 1895.347,414.542447 C1889.26803,418.113691 1881.73197,418.113691 1875.653,414.542447 C1869.57403,410.971203 1865.9051,404.388553 1866.065,397.34 L1866.065,395.66 L1830.275,395.66 L1830.275,397.34 C1830.4349,404.388553 1826.76597,410.971203 1820.687,414.542447 C1814.60803,418.113691 1807.07197,418.113691 1800.993,414.542447 C1794.91403,410.971203 1791.2451,404.388553 1791.405,397.34 L1791.405,395.66 L1772.045,395.66 C1770.36329,395.66 1769,394.296707 1769,392.615 C1769,390.933293 1770.36329,389.57 1772.045,389.57 L1775.045,389.57 L1774.875,387.74 C1774.875,387.63 1774.875,387.52 1774.875,387.41 L1774.875,353.16 C1775.0539,350.207746 1776.19951,347.396441 1778.135,345.16 L1792.505,330.66 C1794.686,328.719402 1797.45194,327.56165 1800.365,327.37 L1812.515,327.37 L1812.515,293 C1812.515,290.238576 1814.75358,288 1817.515,288 L1915.205,288 C1917.96642,288 1920.205,290.238576 1920.205,293 L1920.185,390.66 Z M1885.495,384.15 C1880.15519,384.150002 1875.34136,387.367161 1873.29884,392.300891 C1871.25631,397.234621 1872.38748,402.91296 1876.16473,406.687346 C1879.94198,410.461731 1885.62117,411.588598 1890.55335,409.542337 C1895.48553,407.496077 1898.69905,402.67981 1898.695,397.34 C1898.68397,390.056032 1892.77897,384.155506 1885.495,384.15 Z M1810.835,384.15 C1805.49519,384.150002 1800.68136,387.367161 1798.63884,392.300891 C1796.59631,397.234621 1797.72748,402.91296 1801.50473,406.687346 C1805.28198,410.461731 1810.96117,411.588598 1815.89335,409.542337 C1820.82553,407.496077 1824.03905,402.67981 1824.035,397.34 C1824.02397,390.056032 1818.11897,384.155506 1810.835,384.15 Z M1812.475,353.2 L1812.475,333.59 C1812.46951,331.637192 1810.88781,330.055493 1808.935,330.05 L1799.255,330.05 C1797.62764,330.11887 1796.07967,330.772144 1794.895,331.89 L1780.535,346.66 C1779.45742,347.868166 1778.83192,349.412484 1778.765,351.03 L1778.765,353.16 C1778.77051,355.116704 1780.35829,356.700008 1782.315,356.7 L1808.935,356.7 C1810.87235,356.694735 1812.44772,355.13717 1812.475,353.2 Z M1897.375,320.3 L1881.025,320.3 L1881.025,303.96 C1881.02501,301.428913 1878.97608,299.375514 1876.445,299.37 L1864.445,299.37 C1861.91392,299.375514 1859.86499,301.428913 1859.865,303.96 L1859.865,320.3 L1843.525,320.3 C1840.99391,320.299994 1838.94051,322.348919 1838.935,324.88 L1838.935,336.88 C1838.94051,339.411081 1840.99391,341.460006 1843.525,341.46 L1859.865,341.46 L1859.865,357.8 C1859.86499,360.331087 1861.91392,362.384486 1864.445,362.39 L1876.445,362.39 C1878.97608,362.384486 1881.02501,360.331087 1881.025,357.8 L1881.025,341.46 L1897.375,341.46 C1899.90218,341.4545 1901.9495,339.407183 1901.955,336.88 L1901.955,324.88 C1901.9495,322.352817 1899.90218,320.3055 1897.375,320.3 Z" id="ambulancia"></path>
        </g>
    </g>
</svg>